<?xml version='1.0' encoding='utf-8'?>
<!-- Generator: imaengine 6.0   -->
<svg xmlns:xlink="http://www.w3.org/1999/xlink" xmlns="http://www.w3.org/2000/svg" viewBox="0,0,576,320" style="enable-background:new 0 0 576 320;" version="1.1">
<defs/>
<g id="layer0">
<path d="M96.1126,118.347C138.089,118.176 175.249,145.465 187.652,185.566L202.698,185.566L165.663,106.199C162.253,105.433 158.863,104.558 155.531,103.457C146.96,100.594 137.98,99.1372 128.941,99.1442L67.304,99.1442C61.9993,99.1442 57.7024,94.8442 57.7024,89.5432C57.7024,84.2382 61.9993,79.9372 67.304,79.9372L80.5735,79.9372L77.9133,74.6292C77.7102,74.2222 77.5383,73.8012 77.3938,73.3712C76.0891,69.4532 72.4251,66.8042 68.2922,66.8042L62.9251,66.8042L62.9251,47.5972L68.2649,47.5972C80.386,47.5972 91.2141,55.1912 95.343,66.5902L96.304,68.4532C97.2649,53.3442 109.781,41.5702 124.917,41.5272L128.941,41.5272C140.038,41.5272 151.062,43.3122 161.593,46.8202C170.144,49.6722 179.097,51.1292 188.113,51.1292L266.702,51.1292C281.245,32.9292 303.277,22.3282 326.573,22.3242L364.984,22.3242C374.116,22.3402 383.054,24.9882 390.726,29.9492L384.964,16.5042L402.616,8.93723L413.687,34.8082C420.894,26.8872 431.097,22.3552 441.804,22.3242L451.406,22.3242C456.71,22.3242 461.007,26.6252 461.007,31.9262L461.007,89.5432C461.007,94.8442 456.71,99.1442 451.406,99.1442L441.804,99.1442C441.613,99.1442 441.437,99.1442 441.245,99.0862L451.406,122.777C502.144,106.664 556.339,134.734 572.452,185.472C588.566,236.211 560.495,290.402 509.757,306.515C459.019,322.629 404.823,294.558 388.714,243.82C374.827,200.101 393.679,152.652 433.777,130.379L416.054,89.0312L364.351,221.98L364.238,221.98C360.616,239.902 344.863,252.789 326.573,252.785L249.753,252.785C240.484,252.75 231.546,249.336 224.613,243.183L187.656,243.183C171.745,293.773 117.835,321.887 67.2415,305.976C16.6516,290.066 -11.4617,236.156 4.4485,185.566C17.0344,145.543 54.1516,118.32 96.1126,118.347ZM441.804,214.375C441.804,235.586 459.003,252.785 480.214,252.785C501.429,252.785 518.624,235.586 518.624,214.375C518.624,193.16 501.429,175.965 480.214,175.965C478.281,176.012 476.355,176.207 474.452,176.551L489.038,210.594L471.39,218.16L456.812,184.137C447.39,191.34 441.843,202.512 441.804,214.375ZM403.394,214.375C403.261,256.933 437.656,291.543 480.214,291.676C522.777,291.808 557.382,257.414 557.515,214.855C557.648,172.293 523.253,137.687 480.695,137.554C473.37,137.531 466.077,138.554 459.042,140.586L466.722,158.429C497.675,150.929 528.847,169.941 536.343,200.89C543.843,231.844 524.835,263.015 493.882,270.515C462.933,278.012 431.761,259.004 424.261,228.051C418.48,204.191 428.437,179.293 449.073,165.996L441.39,148.191C417.89,161.957 403.433,187.137 403.394,214.375ZM431.808,77.0582C434.808,78.9292 438.269,79.9292 441.804,79.9372L441.804,41.5312C432.781,41.5392 424.984,47.8282 423.062,56.6442L431.808,77.0582ZM198.073,127.953L240.691,127.953L246.452,108.746L188.472,108.746L198.073,127.953ZM188.113,70.3362C177.019,70.3402 165.995,68.5512 155.464,65.0472C146.913,62.1912 137.956,60.7342 128.945,60.7342L124.921,60.7342C119.616,60.7342 115.316,65.0352 115.316,70.3362C115.316,75.6402 119.616,79.9372 124.921,79.9372L134.523,79.9372C134.988,79.9962 135.452,80.0902 135.906,80.2152C144.636,80.7932 153.257,82.4762 161.562,85.2302C170.124,88.0862 179.089,89.5432 188.113,89.5392L250.413,89.5392C251.238,82.9492 252.917,76.4922 255.409,70.3362L188.113,70.3362ZM266.519,108.746L257.156,140.289C257.089,140.519 256.937,140.703 256.851,140.926L246.23,176.32C247.409,176.215 248.542,175.965 249.753,175.965L262.456,175.965L276.355,141.23C278.562,135.765 282.976,131.492 288.511,129.461C288.3,128.328 288.187,127.179 288.163,126.031L288.163,108.746L266.519,108.746ZM283.14,175.965L320.073,175.965L330.55,149.789C330.941,148.801 330.46,147.683 329.476,147.293C329.249,147.203 329.007,147.156 328.765,147.156L295.972,147.156C295.183,147.156 294.476,147.637 294.187,148.367L283.14,175.965ZM393.792,79.9372L393.792,70.3362C393.792,54.4262 380.894,41.5272 364.984,41.5272L326.573,41.5272C307.648,41.5822 289.964,50.9652 279.312,66.6092L272.32,89.5392L384.191,89.5392C389.491,89.5432 393.792,85.2422 393.792,79.9372ZM371.562,150.383L387.886,108.371C386.663,108.578 385.429,108.703 384.191,108.746L307.366,108.746L307.366,126.031C307.366,127.09 308.23,127.953 309.288,127.953L328.761,127.953C339.691,127.926 348.816,136.269 349.765,147.156L361.144,147.156C364.859,147.191 368.48,148.316 371.562,150.383ZM361.144,166.363L344.609,166.363L339.808,178.441C344.601,180.207 348.999,182.906 352.741,186.383L361.144,166.363ZM326.573,233.582C337.179,233.582 345.781,224.98 345.781,214.375C345.781,203.769 337.179,195.168 326.573,195.168C315.968,195.168 307.366,203.769 307.366,214.375C307.366,224.98 315.968,233.582 326.573,233.582ZM230.999,218.437C231.066,218.726 231.183,218.996 231.269,219.281C232.073,222.203 233.538,224.894 235.55,227.156C235.601,227.219 235.648,227.285 235.687,227.359C239.296,231.312 244.398,233.57 249.753,233.582L293.503,233.582C286.382,221.765 286.382,206.984 293.503,195.172L249.753,195.172C244.398,195.183 239.296,197.437 235.687,201.39C235.648,201.465 235.601,201.531 235.55,201.594C233.538,203.855 232.073,206.551 231.269,209.469C231.183,209.758 231.066,210.023 230.999,210.312C230.398,212.988 230.398,215.762 230.999,218.437ZM234.925,147.156L205.937,147.156L223.585,184.972L234.925,147.156ZM212.593,223.976C212.507,223.64 212.468,223.297 212.39,222.961C212.245,222.336 212.132,221.711 212.023,221.039C211.109,216.605 211.109,212.031 212.023,207.594C212.12,207.047 212.187,206.512 212.304,205.98L212.245,205.98L211.628,204.769L96.1126,204.769L96.1126,223.976L212.593,223.976ZM86.5071,185.566L121.464,185.566C119.902,184.203 118.226,182.972 116.46,181.89C115.902,181.543 115.327,181.254 114.749,180.929C113.48,180.207 112.163,179.566 110.812,179.008C110.14,178.719 109.448,178.461 108.757,178.219C107.366,177.738 105.952,177.336 104.515,177.019C103.859,176.875 103.226,176.695 102.593,176.59C100.456,176.191 98.2844,175.984 96.1126,175.965C74.8977,175.965 57.7024,193.16 57.7024,214.375C57.7024,235.586 74.8977,252.785 96.1126,252.785C98.2649,252.769 100.409,252.57 102.527,252.187C103.187,252.082 103.823,251.902 104.448,251.758C105.886,251.437 107.3,251.039 108.691,250.554C109.382,250.316 110.073,250.058 110.745,249.769C112.097,249.211 113.413,248.566 114.683,247.847C115.261,247.531 115.835,247.242 116.394,246.887C118.171,245.793 119.855,244.554 121.425,243.179L86.511,243.179C81.2063,243.179 76.9094,238.883 76.9094,233.578L76.9094,195.168C76.9055,189.867 81.2063,185.566 86.5071,185.566ZM96.1126,291.195C127.452,291.332 155.691,272.293 167.304,243.183L145.96,243.183C145.777,243.508 145.538,243.789 145.343,244.144C144.777,245.101 144.156,245.937 143.538,246.832C142.636,248.148 141.726,249.453 140.714,250.672C140.015,251.527 139.277,252.344 138.527,253.16C137.488,254.301 136.425,255.406 135.288,256.453C134.476,257.222 133.628,257.953 132.773,258.664C131.593,259.621 130.394,260.582 129.144,261.429C128.234,262.07 127.32,262.695 126.37,263.293C125.062,264.097 123.718,264.828 122.347,265.527C121.386,266.027 120.425,266.547 119.464,266.988C118.007,267.64 116.499,268.179 114.98,268.699C114.019,269.043 113.058,269.429 112.031,269.715C110.331,270.207 108.593,270.543 106.847,270.879C105.972,271.039 105.116,271.281 104.234,271.406C72.7415,275.969 43.5149,254.137 38.9524,222.648C34.3899,191.156 56.2219,161.929 87.7102,157.367C93.1907,156.57 98.7571,156.57 104.234,157.367C105.116,157.492 105.964,157.73 106.835,157.894C108.585,158.222 110.331,158.566 112.042,159.058C113.003,159.344 113.96,159.73 114.921,160.066C116.441,160.594 117.948,161.133 119.417,161.785C120.374,162.226 121.335,162.746 122.296,163.242C123.671,163.945 125.015,164.676 126.32,165.48C127.281,166.078 128.183,166.699 129.097,167.344C130.374,168.215 131.585,169.137 132.726,170.109C133.581,170.82 134.425,171.551 135.241,172.32C136.366,173.363 137.441,174.469 138.476,175.613C139.226,176.429 139.964,177.246 140.667,178.097C141.628,179.336 142.589,180.644 143.491,181.941C144.105,182.836 144.73,183.699 145.296,184.629C145.488,184.957 145.726,185.234 145.909,185.59L167.304,185.59C151.406,146.254 106.628,127.258 67.2922,143.156C27.9563,159.054 8.96022,203.832 24.8587,243.168C36.5969,272.203 64.7922,291.207 96.1126,291.195Z" fill="#E31A23"/>
</g>
</svg>
