<?xml version='1.0' encoding='utf-8'?>
<!-- Generator: imaengine 6.0   -->
<svg xmlns:xlink="http://www.w3.org/1999/xlink" xmlns="http://www.w3.org/2000/svg" viewBox="0,0,576,576" style="enable-background:new 0 0 576 576;" version="1.1">
<defs/>
<g id="layer0">
<path d="M96.1126,246.347C138.089,246.176 175.249,273.465 187.652,313.566L202.698,313.566L165.663,234.199C162.253,233.433 158.863,232.558 155.531,231.457C146.96,228.594 137.98,227.137 128.941,227.144L67.304,227.144C61.9993,227.144 57.7024,222.844 57.7024,217.543C57.7024,212.238 61.9993,207.937 67.304,207.937L80.5735,207.937L77.9133,202.629C77.7102,202.222 77.5383,201.801 77.3938,201.371C76.0891,197.453 72.4251,194.804 68.2922,194.804L62.9251,194.804L62.9251,175.597L68.2649,175.597C80.386,175.597 91.2141,183.191 95.343,194.59L96.304,196.453C97.2649,181.344 109.781,169.57 124.917,169.527L128.941,169.527C140.038,169.527 151.062,171.312 161.593,174.82C170.144,177.672 179.097,179.129 188.113,179.129L266.702,179.129C281.245,160.929 303.277,150.328 326.573,150.324L364.984,150.324C374.116,150.34 383.054,152.988 390.726,157.949L384.964,144.504L402.616,136.937L413.687,162.808C420.894,154.887 431.097,150.355 441.804,150.324L451.406,150.324C456.71,150.324 461.007,154.625 461.007,159.926L461.007,217.543C461.007,222.844 456.71,227.144 451.406,227.144L441.804,227.144C441.613,227.144 441.437,227.144 441.245,227.086L451.406,250.777C502.144,234.664 556.339,262.734 572.452,313.472C588.566,364.211 560.495,418.402 509.757,434.515C459.019,450.629 404.823,422.558 388.714,371.82C374.827,328.101 393.679,280.652 433.777,258.379L416.054,217.031L364.351,349.98L364.238,349.98C360.616,367.902 344.863,380.789 326.573,380.785L249.753,380.785C240.484,380.75 231.546,377.336 224.613,371.183L187.656,371.183C171.745,421.773 117.835,449.887 67.2415,433.976C16.6516,418.066 -11.4617,364.156 4.4485,313.566C17.0344,273.543 54.1516,246.32 96.1126,246.347ZM441.804,342.375C441.804,363.586 459.003,380.785 480.214,380.785C501.429,380.785 518.624,363.586 518.624,342.375C518.624,321.16 501.429,303.965 480.214,303.965C478.281,304.012 476.355,304.207 474.452,304.551L489.038,338.594L471.39,346.16L456.812,312.137C447.39,319.34 441.843,330.512 441.804,342.375ZM403.394,342.375C403.261,384.933 437.656,419.543 480.214,419.676C522.777,419.808 557.382,385.414 557.515,342.855C557.648,300.293 523.253,265.687 480.695,265.554C473.37,265.531 466.077,266.554 459.042,268.586L466.722,286.429C497.675,278.929 528.847,297.941 536.343,328.89C543.843,359.844 524.835,391.015 493.882,398.515C462.933,406.012 431.761,387.004 424.261,356.051C418.48,332.191 428.437,307.293 449.073,293.996L441.39,276.191C417.89,289.957 403.433,315.137 403.394,342.375ZM431.808,205.058C434.808,206.929 438.269,207.929 441.804,207.937L441.804,169.531C432.781,169.539 424.984,175.828 423.062,184.644L431.808,205.058ZM198.073,255.953L240.691,255.953L246.452,236.746L188.472,236.746L198.073,255.953ZM188.113,198.336C177.019,198.34 165.995,196.551 155.464,193.047C146.913,190.191 137.956,188.734 128.945,188.734L124.921,188.734C119.616,188.734 115.316,193.035 115.316,198.336C115.316,203.64 119.616,207.937 124.921,207.937L134.523,207.937C134.988,207.996 135.452,208.09 135.906,208.215C144.636,208.793 153.257,210.476 161.562,213.23C170.124,216.086 179.089,217.543 188.113,217.539L250.413,217.539C251.238,210.949 252.917,204.492 255.409,198.336L188.113,198.336ZM266.519,236.746L257.156,268.289C257.089,268.519 256.937,268.703 256.851,268.926L246.23,304.32C247.409,304.215 248.542,303.965 249.753,303.965L262.456,303.965L276.355,269.23C278.562,263.765 282.976,259.492 288.511,257.461C288.3,256.328 288.187,255.179 288.163,254.031L288.163,236.746L266.519,236.746ZM283.14,303.965L320.073,303.965L330.55,277.789C330.941,276.801 330.46,275.683 329.476,275.293C329.249,275.203 329.007,275.156 328.765,275.156L295.972,275.156C295.183,275.156 294.476,275.637 294.187,276.367L283.14,303.965ZM393.792,207.937L393.792,198.336C393.792,182.426 380.894,169.527 364.984,169.527L326.573,169.527C307.648,169.582 289.964,178.965 279.312,194.609L272.32,217.539L384.191,217.539C389.491,217.543 393.792,213.242 393.792,207.937ZM371.562,278.383L387.886,236.371C386.663,236.578 385.429,236.703 384.191,236.746L307.366,236.746L307.366,254.031C307.366,255.09 308.23,255.953 309.288,255.953L328.761,255.953C339.691,255.926 348.816,264.269 349.765,275.156L361.144,275.156C364.859,275.191 368.48,276.316 371.562,278.383ZM361.144,294.363L344.609,294.363L339.808,306.441C344.601,308.207 348.999,310.906 352.741,314.383L361.144,294.363ZM326.573,361.582C337.179,361.582 345.781,352.98 345.781,342.375C345.781,331.769 337.179,323.168 326.573,323.168C315.968,323.168 307.366,331.769 307.366,342.375C307.366,352.98 315.968,361.582 326.573,361.582ZM230.999,346.437C231.066,346.726 231.183,346.996 231.269,347.281C232.073,350.203 233.538,352.894 235.55,355.156C235.601,355.219 235.648,355.285 235.687,355.359C239.296,359.312 244.398,361.57 249.753,361.582L293.503,361.582C286.382,349.765 286.382,334.984 293.503,323.172L249.753,323.172C244.398,323.183 239.296,325.437 235.687,329.39C235.648,329.465 235.601,329.531 235.55,329.594C233.538,331.855 232.073,334.551 231.269,337.469C231.183,337.758 231.066,338.023 230.999,338.312C230.398,340.988 230.398,343.762 230.999,346.437ZM234.925,275.156L205.937,275.156L223.585,312.972L234.925,275.156ZM212.593,351.976C212.507,351.64 212.468,351.297 212.39,350.961C212.245,350.336 212.132,349.711 212.023,349.039C211.109,344.605 211.109,340.031 212.023,335.594C212.12,335.047 212.187,334.512 212.304,333.98L212.245,333.98L211.628,332.769L96.1126,332.769L96.1126,351.976L212.593,351.976ZM86.5071,313.566L121.464,313.566C119.902,312.203 118.226,310.972 116.46,309.89C115.902,309.543 115.327,309.254 114.749,308.929C113.48,308.207 112.163,307.566 110.812,307.008C110.14,306.719 109.448,306.461 108.757,306.219C107.366,305.738 105.952,305.336 104.515,305.019C103.859,304.875 103.226,304.695 102.593,304.59C100.456,304.191 98.2844,303.984 96.1126,303.965C74.8977,303.965 57.7024,321.16 57.7024,342.375C57.7024,363.586 74.8977,380.785 96.1126,380.785C98.2649,380.769 100.409,380.57 102.527,380.187C103.187,380.082 103.823,379.902 104.448,379.758C105.886,379.437 107.3,379.039 108.691,378.554C109.382,378.316 110.073,378.058 110.745,377.769C112.097,377.211 113.413,376.566 114.683,375.847C115.261,375.531 115.835,375.242 116.394,374.887C118.171,373.793 119.855,372.554 121.425,371.179L86.511,371.179C81.2063,371.179 76.9094,366.883 76.9094,361.578L76.9094,323.168C76.9055,317.867 81.2063,313.566 86.5071,313.566ZM96.1126,419.195C127.452,419.332 155.691,400.293 167.304,371.183L145.96,371.183C145.777,371.508 145.538,371.789 145.343,372.144C144.777,373.101 144.156,373.937 143.538,374.832C142.636,376.148 141.726,377.453 140.714,378.672C140.015,379.527 139.277,380.344 138.527,381.16C137.488,382.301 136.425,383.406 135.288,384.453C134.476,385.222 133.628,385.953 132.773,386.664C131.593,387.621 130.394,388.582 129.144,389.429C128.234,390.07 127.32,390.695 126.37,391.293C125.062,392.097 123.718,392.828 122.347,393.527C121.386,394.027 120.425,394.547 119.464,394.988C118.007,395.64 116.499,396.179 114.98,396.699C114.019,397.043 113.058,397.429 112.031,397.715C110.331,398.207 108.593,398.543 106.847,398.879C105.972,399.039 105.116,399.281 104.234,399.406C72.7415,403.969 43.5149,382.137 38.9524,350.648C34.3899,319.156 56.2219,289.929 87.7102,285.367C93.1907,284.57 98.7571,284.57 104.234,285.367C105.116,285.492 105.964,285.73 106.835,285.894C108.585,286.222 110.331,286.566 112.042,287.058C113.003,287.344 113.96,287.73 114.921,288.066C116.441,288.594 117.948,289.133 119.417,289.785C120.374,290.226 121.335,290.746 122.296,291.242C123.671,291.945 125.015,292.676 126.32,293.48C127.281,294.078 128.183,294.699 129.097,295.344C130.374,296.215 131.585,297.137 132.726,298.109C133.581,298.82 134.425,299.551 135.241,300.32C136.366,301.363 137.441,302.469 138.476,303.613C139.226,304.429 139.964,305.246 140.667,306.097C141.628,307.336 142.589,308.644 143.491,309.941C144.105,310.836 144.73,311.699 145.296,312.629C145.488,312.957 145.726,313.234 145.909,313.59L167.304,313.59C151.406,274.254 106.628,255.258 67.2922,271.156C27.9563,287.054 8.96022,331.832 24.8587,371.168C36.5969,400.203 64.7922,419.207 96.1126,419.195Z" fill="#E31A23"/>
</g>
</svg>
