<?xml version='1.0' encoding='utf-8'?>
<!-- Generator: imaengine 6.0   -->
<svg xmlns:xlink="http://www.w3.org/1999/xlink" xmlns="http://www.w3.org/2000/svg" viewBox="0,0,575,230" style="enable-background:new 0 0 575 230;" version="1.1">
<defs/>
<g id="layer0">
<path d="M20.891,62.8546C22.2347,60.1676 24.7622,58.2703 27.7142,57.7259L125.877,39.5375L212.733,23.4608C230.002,20.6721 247.465,19.2743 264.955,19.2783L279.187,19.2783C318.077,19.2514 356.657,26.2145 393.083,39.8376L453.581,62.4418L454.828,62.6831L493.34,70.4059C524.263,76.5754 552.23,92.9164 572.782,116.826C575.169,119.629 575.738,123.551 574.246,126.916L568.591,139.675C566.289,147.122 565.242,154.902 565.488,162.692C565.573,167.977 561.359,172.331 556.07,172.417C556.02,172.417 555.969,172.417 555.918,172.417L523.777,172.417C513.323,202.237 480.675,217.936 450.854,207.487C434.443,201.731 421.536,188.829 415.788,172.417L160.075,172.417C149.621,202.237 116.973,217.936 87.1531,207.487C70.7414,201.731 57.8348,188.829 52.0826,172.417L39.0747,172.417C37.1858,172.413 35.3398,171.855 33.7626,170.808L5.05179,151.666C2.38791,149.89 0.791136,146.903 0.791136,143.702L0.791136,105.418C0.775558,103.938 1.1027,102.474 1.7492,101.138L20.891,62.8546ZM510.932,113.476L530.237,113.476L530.237,132.618L523.297,132.618C525.867,139.203 527.192,146.206 527.203,153.274L546.661,153.274C546.984,145.964 548.476,138.756 551.085,131.92L554.232,124.817C536.881,106.547 514.305,94.0848 489.598,89.1467L453.896,81.9881L441.064,87.367L441.064,103.638C463.828,90.3461 492.737,94.4278 510.932,113.476ZM432.266,160.931C436.5,181.646 456.728,195.009 477.443,190.776C498.159,186.542 511.52,166.317 507.287,145.598C503.054,124.883 482.83,111.522 462.11,115.755C444.288,119.4 431.491,135.079 431.495,153.274C431.495,155.846 431.752,158.412 432.266,160.931ZM264.955,38.4199C248.574,38.4199 232.218,39.7329 216.047,42.3341L194.989,46.2284L265.586,53.4568L267.885,38.4199L264.955,38.4199ZM224.662,107.677L191.489,106.232L197.49,115.228L227.112,116.646L224.662,107.677ZM386.411,57.7648C354.631,45.9094 321.096,39.4408 287.19,38.6183L284.67,55.4199L416.018,68.8177L386.411,57.7648ZM392.795,114.991L244.751,108.557L247.22,117.612L393.659,124.56L392.76,143.702L252.513,137.003L256.952,153.274L412.349,153.274C412.341,142 415.671,130.974 421.922,121.592L421.922,88.687L234.099,69.4797L239.466,89.1467L393.62,95.8456L392.795,114.991ZM68.5643,160.931C72.7977,181.646 93.0222,195.009 113.737,190.776C134.457,186.542 147.819,166.317 143.586,145.598C139.348,124.883 119.124,111.522 98.4084,115.755C80.583,119.4 67.7855,135.079 67.7894,153.274C67.7894,155.846 68.0503,158.412 68.5643,160.931ZM74.7489,105.2C101.252,87.8535 136.797,95.2803 154.14,121.784C160.261,131.142 163.518,142.09 163.498,153.274L237.113,153.274L232.413,136.045L191.765,134.133C188.727,133.989 185.938,132.412 184.252,129.884L165.111,101.17C163.109,98.1706 162.964,94.2992 164.737,91.1566C166.466,87.9782 169.87,86.0779 173.484,86.2763L219.424,88.2663L213.683,67.372L128.058,58.6173L35.9356,75.6721L31.0363,85.4747L74.7489,105.2ZM19.933,138.58L41.945,153.274L48.6475,153.274C48.6514,141.101 52.5499,129.245 59.7665,119.439L22.441,102.614L19.9056,107.677L19.933,138.58Z" fill="#E21A23"/>
</g>
</svg>
