<?xml version="1.0" encoding="UTF-8" standalone="no"?>
<!-- Created with Inkscape (http://www.inkscape.org/) -->

<svg
   xmlns:dc="http://purl.org/dc/elements/1.1/"
   xmlns:cc="http://creativecommons.org/ns#"
   xmlns:rdf="http://www.w3.org/1999/02/22-rdf-syntax-ns#"
   xmlns:svg="http://www.w3.org/2000/svg"
   xmlns="http://www.w3.org/2000/svg"
   xmlns:sodipodi="http://sodipodi.sourceforge.net/DTD/sodipodi-0.dtd"
   xmlns:inkscape="http://www.inkscape.org/namespaces/inkscape"
   width="55.033298mm"
   height="10.230474mm"
   viewBox="0 0 55.033298 10.230474"
   version="1.1"
   id="svg925"
   inkscape:version="0.92.2 (5c3e80d, 2017-08-06)"
   sodipodi:docname="webmotors-logo.svg">
  <defs
     id="defs919">
    <clipPath
       id="clipPath132"
       clipPathUnits="userSpaceOnUse">
      <path
         inkscape:connector-curvature="0"
         id="path130"
         d="M 282,46 H 438 V 17 H 282 Z" />
    </clipPath>
    <clipPath
       id="clipPath138"
       clipPathUnits="userSpaceOnUse">
      <path
         inkscape:connector-curvature="0"
         id="path136"
         d="M 282,45.99985 H 438 V 17 H 282 Z" />
    </clipPath>
    <clipPath
       id="clipPath144"
       clipPathUnits="userSpaceOnUse">
      <path
         inkscape:connector-curvature="0"
         id="path142"
         d="M 0,0 H 720 V 405 H 0 Z" />
    </clipPath>
  </defs>
  <sodipodi:namedview
     id="base"
     pagecolor="#ffffff"
     bordercolor="#666666"
     borderopacity="1.0"
     inkscape:pageopacity="0.0"
     inkscape:pageshadow="2"
     inkscape:zoom="0.98994949"
     inkscape:cx="-129.49055"
     inkscape:cy="77.042951"
     inkscape:document-units="mm"
     inkscape:current-layer="g140"
     showgrid="false"
     fit-margin-top="0"
     fit-margin-left="0"
     fit-margin-right="0"
     fit-margin-bottom="0"
     inkscape:window-width="1600"
     inkscape:window-height="837"
     inkscape:window-x="-8"
     inkscape:window-y="-8"
     inkscape:window-maximized="1" />
  <metadata
     id="metadata922">
    <rdf:RDF>
      <cc:Work
         rdf:about="">
        <dc:format>image/svg+xml</dc:format>
        <dc:type
           rdf:resource="http://purl.org/dc/dcmitype/StillImage" />
        <dc:title></dc:title>
      </cc:Work>
    </rdf:RDF>
  </metadata>
  <g
     inkscape:label="Layer 1"
     inkscape:groupmode="layer"
     id="layer1"
     transform="translate(-4.9893074,-12.938334)">
    <g
       transform="matrix(0.35277777,0,0,-0.35277777,-94.494059,29.166059)"
       clip-path="url(#clipPath132)"
       id="g128">
      <g
         clip-path="url(#clipPath138)"
         id="g134">
        <g
           clip-path="url(#clipPath144)"
           id="g140">
          <path
             id="path146"
             style="fill:#ec0928;fill-opacity:1;fill-rule:evenodd;stroke:none"
             d="m 311.2648,31.5 c 0,8.00807 -6.5511,14.49992 -14.6323,14.49992 -8.0812,0 -14.6324,-6.49185 -14.6324,-14.49992 0,-8.00807 6.5512,-14.49992 14.6324,-14.49992 8.0812,0 14.6323,6.49185 14.6323,14.49992"
             inkscape:connector-curvature="0" />
          <path
             id="path148"
             style="fill:#ffffff;fill-opacity:1;fill-rule:nonzero;stroke:none"
             d="m 303.8394,38.53156 c -0.5826,0 -1.0596,-0.47262 -1.0596,-1.05001 v -4.35227 c 0,-0.3196 -0.2616,-0.57928 -0.5845,-0.57928 h -3.9189 c -0.3225,0 -0.5842,0.25968 -0.5842,0.57928 v 4.35227 c 0,0.57739 -0.4769,1.05001 -1.06,1.05001 -0.5826,0 -1.0595,-0.47262 -1.0595,-1.05001 v -4.35227 c 0,-0.3196 -0.2617,-0.57928 -0.5846,-0.57928 h -3.9185 c -0.3229,0 -0.5846,0.25968 -0.5846,0.57928 v 4.35227 c 0,0.57739 -0.4769,1.05001 -1.0596,1.05001 -0.583,0 -1.06,-0.47262 -1.06,-1.05001 v -11.9631 c 0,-0.57739 0.477,-1.05001 1.06,-1.05001 0.5827,0 1.0596,0.47262 1.0596,1.05001 v 4.35227 c 0,0.31998 0.2617,0.57928 0.5846,0.57928 h 3.9185 c 0.3229,0 0.5846,-0.2593 0.5846,-0.57928 v -4.35227 c 0,-0.57739 0.4769,-1.05001 1.0595,-1.05001 0.5831,0 1.06,0.47262 1.06,1.05001 v 4.35227 c 0,0.31998 0.2617,0.57928 0.5846,0.57928 h 3.9185 c 0.3229,0 0.5845,-0.2593 0.5845,-0.57928 v -4.35227 c 0,-0.57739 0.477,-1.05001 1.0596,-1.05001 0.5827,0 1.0596,0.47262 1.0596,1.05001 v 11.9631 c 0,0.57739 -0.4769,1.05001 -1.0596,1.05001"
             inkscape:connector-curvature="0" />
          <path
             id="path150"
             style="fill:#232323;fill-opacity:1;fill-rule:nonzero;stroke:none"
             d="m 338.7508,32.17421 -0.003,1.90403 c -10e-4,0.64786 0.2008,1.19171 0.5838,1.57387 0.4313,0.43003 1.0896,0.65729 1.905,0.65729 1.4799,0 2.2736,-0.8642 2.2736,-2.32501 0,-1.83656 -1.4947,-1.97827 -2.2656,-1.97827 -0.4408,0 -1.5365,0.05842 -2.4934,0.16809 m 6.7443,-1.48455 c 0.8227,0.82048 1.2388,1.97073 1.2357,3.41835 -0.006,3.21408 -1.9891,5.05781 -5.4409,5.05781 -1.8922,0 -3.4485,-0.55478 -4.5004,-1.60403 -0.933,-0.93053 -1.4248,-2.19724 -1.4221,-3.66295 l 0.011,-4.73142 c 0.006,-3.11421 2.3353,-5.14412 5.7947,-5.20668 0.2358,-0.0042 3.1088,-0.14887 5.1956,2.01483 0.3789,0.39272 0.4085,1.02174 0.0578,1.4593 -0.0924,0.11571 -0.2772,0.34598 -0.3696,0.46131 -0.3427,0.42739 -1.0185,0.56005 -1.4091,0.28945 -0.0833,-0.05767 -1.4989,-1.20151 -3.2252,-1.27953 -0.8417,-0.03806 -1.5327,0.09234 -2.0077,0.51746 -0.4218,0.37802 -0.6546,0.94448 -0.6561,1.59499 l -0.002,0.46658 c 0.8523,-0.12927 1.6787,-0.19259 2.5223,-0.19259 1.8682,0 3.2864,0.47036 4.2159,1.39712"
             inkscape:connector-curvature="0" />
          <path
             id="path152"
             style="fill:#232323;fill-opacity:1;fill-rule:nonzero;stroke:none"
             d="m 354.3661,27.03217 c -1.7891,0 -2.5535,0.62262 -2.5562,2.08192 l -0.019,6.99387 c 1.4817,0.0015 2.0503,3.7e-4 2.7338,0 1.7396,-0.0015 2.3888,-0.45943 2.3896,-1.69524 10e-4,-1.22035 -0.001,-4.88104 -0.001,-4.88104 0.002,-0.95767 0.001,-2.49951 -2.547,-2.49951 m 0.9105,12.10444 c -0.1042,0 -2.9175,-0.01018 -3.4884,-0.01244 l -0.002,3.25441 c 0,0.0019 4e-4,0.0038 4e-4,0.0057 v 2.40717 c 0,0.61696 -0.5073,1.12199 -1.1273,1.12199 l -1.1292,7.6e-4 c -0.6199,0 -1.1269,-0.50465 -1.1269,-1.12199 l 0.0487,-15.89252 c 0.006,-2.97137 2.3934,-4.96811 5.9419,-4.96811 1.8533,0 3.3834,0.54875 4.4239,1.58707 0.9832,0.98028 1.5012,2.34573 1.4978,3.94901 l -0.0107,4.76082 c -0.003,1.83317 -0.6614,4.90818 -5.0283,4.90818"
             inkscape:connector-curvature="0" />
          <path
             id="path154"
             style="fill:#232323;fill-opacity:1;fill-rule:nonzero;stroke:none"
             d="m 390.8667,27.66726 c -0.4572,-0.45603 -1.1368,-0.68744 -2.0199,-0.68744 -1.7218,0 -2.6718,0.88794 -2.6749,2.50026 l -0.01,4.19361 c -10e-4,0.75716 0.2134,1.35603 0.6386,1.78041 0.4587,0.45754 1.1406,0.68932 2.0264,0.68932 1.7217,0 2.6718,-0.87739 2.6748,-2.47011 l 0.01,-4.19361 c 10e-4,-0.7745 -0.2156,-1.3843 -0.645,-1.81244 m -2.045,11.51197 c -1.8994,0 -3.469,-0.56419 -4.5392,-1.63191 -0.9847,-0.98141 -1.5034,-2.33142 -1.5004,-3.90378 l 0.01,-4.16384 c 0.006,-3.36257 2.3854,-5.53532 6.0605,-5.53532 1.8921,0 3.4599,0.56609 4.5335,1.63682 0.9885,0.98593 1.5095,2.33405 1.5065,3.89888 l -0.01,4.16383 c -0.007,3.36258 -2.3854,5.53532 -6.0609,5.53532"
             inkscape:connector-curvature="0" />
          <path
             id="path156"
             style="fill:#232323;fill-opacity:1;fill-rule:nonzero;stroke:none"
             d="m 413.811,27.66726 c -0.4571,-0.45603 -1.1368,-0.68744 -2.0199,-0.68744 -1.7218,0 -2.6718,0.88794 -2.6749,2.50026 l -0.009,4.19361 c -0.002,0.75716 0.2133,1.35603 0.6385,1.78003 0.4587,0.45792 1.1406,0.6897 2.0264,0.6897 1.7217,0 2.6714,-0.87739 2.6744,-2.47011 l 0.01,-4.19361 c 0.002,-0.7745 -0.2153,-1.3843 -0.6447,-1.81244 m -2.045,11.51197 c -1.8998,0 -3.4694,-0.56419 -4.5396,-1.63191 -0.9843,-0.98179 -1.503,-2.33142 -1.5,-3.90378 l 0.01,-4.16384 c 0.006,-3.36257 2.3854,-5.53532 6.0605,-5.53532 1.8921,0 3.4599,0.56609 4.5335,1.63682 0.9885,0.98593 1.5092,2.33405 1.5061,3.89888 l -0.01,4.16383 c -0.007,3.36258 -2.3854,5.53532 -6.0605,5.53532"
             inkscape:connector-curvature="0" />
          <path
             id="path158"
             style="fill:#232323;fill-opacity:1;fill-rule:nonzero;stroke:none"
             d="m 427.4446,38.04319 c 0,0.61696 -0.5074,1.12199 -1.1273,1.12199 l -4e-4,-3.8e-4 c -0.3784,0.03354 -1.4338,-0.0026 -1.4338,-0.0026 -4.7807,-0.19787 -5.1713,-1.80453 -5.136,-6.26045 l 0.002,-7.83545 c 0,-0.61696 0.507,-1.12199 1.1269,-1.12199 l 1.1285,0.0026 c 0.6199,0 1.1269,0.50502 1.1269,1.12199 0,0 -8e-4,7.7205 -10e-4,7.72804 -0.0263,2.23907 0.0383,3.23933 1.7069,3.23933 h 1.4802 c 0.6199,0 1.1273,0.50503 1.1273,1.12199 v 0.88493 z"
             inkscape:connector-curvature="0" />
          <path
             id="path160"
             style="fill:#232323;fill-opacity:1;fill-rule:nonzero;stroke:none"
             d="m 403.4866,26.97511 c -0.3906,-0.0015 -1.1718,-0.0083 -1.5624,0 -1.4373,0.03015 -1.7339,1.65415 -1.7351,2.94649 -10e-4,1.34059 0.002,5.61824 0.002,5.61824 h 3.1967 c 0.6199,0 1.1269,0.50502 1.1269,1.12199 v 0.69988 c 0,0.61695 -0.507,1.12198 -1.1269,1.12198 h -3.1997 l -0.003,1.77136 v 0 2.40717 c 0,0.61697 -0.5073,1.12199 -1.1273,1.12199 h -1.1352 c -0.6199,0 -1.1273,-0.50502 -1.1273,-1.12199 0,0 0.006,-9.25254 0.01,-12.3366 0.005,-3.70064 0.8519,-6.28645 4.9682,-6.37313 0.4282,-0.0091 1.7134,-3.8e-4 1.7134,-3.8e-4 0.6199,0 1.1273,0.50352 1.1273,1.12048 v 0.78053 c 0,0.61697 -0.5074,1.12425 -1.1273,1.12199"
             inkscape:connector-curvature="0" />
          <path
             id="path162"
             style="fill:#232323;fill-opacity:1;fill-rule:nonzero;stroke:none"
             d="m 332.3036,39.17027 -1.1243,-0.0019 c -0.6199,0 -1.1273,-0.50503 -1.1273,-1.12199 l 0.0126,-8.82025 c 0.002,-0.51521 -0.054,-1.25805 -0.5557,-1.75893 -0.3354,-0.33543 -0.8276,-0.50616 -1.462,-0.50804 0,0 -0.8987,0.0019 -1.1098,0.0023 0.003,0 0.007,0 0.007,0 -0.0521,0 -0.0981,0.0049 -0.1457,0.0087 0.0624,-0.0075 0.1096,-0.0087 0.1316,-0.0087 -0.0228,0 -0.038,0 -0.038,0 0,0 -0.9839,0 -1.0608,1.05 l -0.01,10.03798 c 0,0.61696 -0.5074,1.12198 -1.1273,1.12198 l -1.1281,-0.0011 c -0.6074,0 -1.1056,-0.48543 -1.125,-1.08543 -0.0118,-0.04033 0.0107,-9.97391 0.0107,-10.04816 0,-0.6652 -0.5838,-1.07751 -1.1163,-1.07751 h -0.002 l -1.1631,0.0038 c -1.8019,0 -1.9483,1.82752 -1.9503,2.38795 l -0.0292,8.69738 c 0,0.61697 -0.5074,1.122 -1.1273,1.122 h -1.1296 c -0.6199,0 -1.1269,-0.50503 -1.1269,-1.122 l 0.002,-8.91673 c 0.006,-3.23368 2.0127,-5.19499 5.3672,-5.19499 0.2247,0 7.5597,0.01545 7.5666,0.01545 2.574,0 5.6463,0.96596 5.7178,5.40303 l -0.0297,8.69324 c 0,0.61697 -0.5073,1.122 -1.1272,1.122"
             inkscape:connector-curvature="0" />
          <path
             id="path164"
             style="fill:#232323;fill-opacity:1;fill-rule:nonzero;stroke:none"
             d="m 375.5059,39.17916 c -0.2247,0 -7.5601,-0.01508 -7.5666,-0.01508 -2.574,0 -5.6467,-0.96709 -5.7178,-5.40378 l 0.0296,-8.69363 c 0,-0.61696 0.5074,-1.12161 1.1273,-1.12161 l 1.1243,0.0015 c 0.6199,0 1.1273,0.50502 1.1273,1.12199 l -0.0126,8.82063 c -0.002,0.5152 0.0537,1.25767 0.5553,1.75892 0.3358,0.33506 0.828,0.50579 1.4623,0.50767 l 1.1551,-0.0023 c 0,0 0.9839,3.8e-4 1.0607,-1.04963 l 0.01,-10.03797 c 0,-0.61734 0.507,-1.12199 1.1269,-1.12199 l 1.1285,0.0011 c 0.6073,0 1.1052,0.48505 1.125,1.08543 0.0114,0.03995 -0.0111,9.9739 -0.0111,10.04777 0,0.66521 0.5842,1.07752 1.1167,1.07752 h 0.002 l 1.163,-0.0034 c 1.802,0 1.9485,-1.8279 1.9503,-2.38795 l 0.0293,-8.69739 c 0,-0.61696 0.507,-1.12199 1.1269,-1.12199 h 1.1296 c 0.6199,0 1.1273,0.50465 1.1273,1.12161 l -0.002,8.91712 c -0.006,3.2333 -2.0127,5.19537 -5.3672,5.19537"
             inkscape:connector-curvature="0" />
          <path
             id="path166"
             style="fill:#232323;fill-opacity:1;fill-rule:nonzero;stroke:none"
             d="m 436.0248,31.65837 c -2.1272,1.74837 -5.5486,2.31332 -4.4339,4.04963 0.3461,0.53895 1.0596,0.56269 1.8244,0.52425 0.4804,-0.02412 0.9334,-0.15 1.3342,-0.31395 0.7055,-0.33693 1.1722,-0.71118 1.219,-0.74359 0.0605,-0.04221 0.1293,-0.07123 0.2016,-0.09422 0.3936,-0.12588 0.9219,0.02224 1.2124,0.38442 0.0928,0.11571 0.2784,0.34711 0.3713,0.46319 0.3518,0.43908 0.3217,1.07036 -0.0582,1.46458 -0.0693,0.07199 -0.1392,0.13907 -0.2092,0.20277 -0.073,0.06595 -0.5819,0.46243 -0.6637,0.52047 l -10e-4,-3.7e-4 c -1.6541,1.10239 -3.4583,1.10277 -3.6329,1.099 -3.1438,-0.06332 -5.1268,-1.51471 -5.1268,-4.3715 0,-0.6848 0.4488,-2.10415 2.5934,-3.27438 2.549,-1.39071 4.6636,-2.64762 3.9851,-3.93808 -0.2845,-0.54083 -1.1406,-0.76055 -1.9054,-0.72211 -0.62,0.03128 -1.1939,0.2314 -1.6685,0.46507 -0.5747,0.30189 -0.8596,0.55365 -1.0573,0.66408 -0.3952,0.22085 -1.0197,0.07877 -1.3445,-0.32676 -0.0928,-0.11571 -0.2784,-0.34712 -0.3712,-0.46282 -0.2647,-0.33053 -0.313,-0.76998 -0.1586,-1.13518 0.0506,-0.12022 0.1228,-0.23216 0.2168,-0.3294 0.2818,-0.29246 0.5708,-0.50917 0.8728,-0.72324 l 0.005,0.0019 c 1.708,-1.23731 3.5534,-1.1397 3.7321,-1.13631 3.1442,0.0637 4.9264,1.74875 4.9264,4.05341 0,0 0.2639,1.93041 -1.8632,3.67916"
             inkscape:connector-curvature="0" />
        </g>
      </g>
    </g>
  </g>
</svg>
